# xmcd CD database file
#
# Track frame offsets:
#	150
#	12075
#	25550
#	39625
#	51200
#	65000
#	78650
#	91850
#	105700
#	117575
#	131900
#	145075
#	157550
#	171775
#	184250
#	196325
#	210475
#	224150
#	237650
#	252950
#	265475
#	279600
#	293000
#	307175
#	321050
#	335875
#
# Disc length: 4663 seconds
#
# Revision: 0
# Processed by: cddbd v1.5PL3 Copyright (c) Steve Scherf et al.
# Submitted via: CDex 1.51
#
DISCID=9012351a
DTITLE=Papa Charlie Jackson - Complete Recorded Works in Chronological Order - Volume 2 (Feb. 1926 - Sep. 1928)
DYEAR=1991
DGENRE=Blues
TTITLE0=Mumsy Mumsy Blues
TTITLE1=Butter and Egg Man Blues
TTITLE2=The Judge Cliff Davis Blues
TTITLE3=Up the Way Bound Blues (take 1)
TTITLE4=Up the Way Bound Blues (take 2)
TTITLE5=Four Eleven Forty-Four
TTITLE6=Your Baby Ain't Sweet Like Mine
TTITLE7=Bad Luck Woman Blues
TTITLE8=Salty Dog (w/Freddie Keppard's Jazz Cardinals)
TTITLE9=Gay Cattin'
TTITLE10=Fat Mouth Blues
TTITLE11=She Belongs to Me Blues
TTITLE12=Coal Man Blues
TTITLE13=Skoodle Um Skoo
TTITLE14=Sheik of Displaines Street
TTITLE15=Look Out Papa Don't Tear Your Pants
TTITLE16=Baby Don't You Be So Mean
TTITLE17=Bright Eyes
TTITLE18=Blue Monday Morning Blues
TTITLE19=Long Gone Lost John
TTITLE20=I'm Looking for a Woman Who Knows How To Treat me Right
TTITLE21=Ash Tray Blues
TTITLE22=No Need of Knockin' on the Blind
TTITLE23=I Like to Love My Baby
TTITLE24=Baby - Papa Needs His Lovin'
TTITLE25=Lexington Kentucky Blues
EXTD=YEAR: 1991
EXTT0=
EXTT1=
EXTT2=
EXTT3=
EXTT4=
EXTT5=
EXTT6=
EXTT7=
EXTT8=
EXTT9=
EXTT10=
EXTT11=
EXTT12=
EXTT13=
EXTT14=
EXTT15=
EXTT16=
EXTT17=
EXTT18=
EXTT19=
EXTT20=
EXTT21=
EXTT22=
EXTT23=
EXTT24=
EXTT25=
PLAYORDER=
